<svg width="40" height="40" viewBox="0 0 40 40" fill="none" xmlns="http://www.w3.org/2000/svg">
  <!-- Background circle -->
  <circle cx="20" cy="20" r="20" fill="#F7F3F0"/>

  <!-- Therapist (left side) -->
  <g fill="#5A4F49">
    <!-- Therapist head -->
    <circle cx="13" cy="12" r="2.5"/>
    
    <!-- Therapist body -->
    <rect x="11" y="15" width="4" height="5" rx="0.5"/>
    
    <!-- Therapist arms -->
    <rect x="9.5" y="16" width="1.5" height="3" rx="0.5"/>
    <rect x="14" y="16" width="1.5" height="3" rx="0.5"/>
    
    <!-- Therapist legs -->
    <rect x="11.5" y="20" width="1.5" height="4" rx="0.5"/>
    <rect x="13.5" y="20" width="1.5" height="4" rx="0.5"/>
  </g>

  <!-- Client (right side) -->
  <g fill="#6B5E57">
    <!-- Client head -->
    <circle cx="27" cy="12" r="2.5"/>
    
    <!-- Client body -->
    <rect x="25" y="15" width="4" height="5" rx="0.5"/>
    
    <!-- Client arms -->
    <rect x="23.5" y="16" width="1.5" height="3" rx="0.5"/>
    <rect x="28" y="16" width="1.5" height="3" rx="0.5"/>
    
    <!-- Client legs -->
    <rect x="25.5" y="20" width="1.5" height="4" rx="0.5"/>
    <rect x="27.5" y="20" width="1.5" height="4" rx="0.5"/>
  </g>

  <!-- Chairs/Seating -->
  <g fill="#8A7B73" opacity="0.6">
    <!-- Therapist chair back -->
    <rect x="10.5" y="13" width="5" height="1.5" rx="0.5"/>
    <!-- Client chair back -->
    <rect x="24.5" y="13" width="5" height="1.5" rx="0.5"/>
  </g>

  <!-- Conversation/Connection lines -->
  <g stroke="#B5A098" stroke-width="1.2" fill="none" opacity="0.7">
    <!-- Speech/connection indicators -->
    <path d="M16 14 Q20 12 24 14"/>
    <circle cx="18" cy="15" r="0.8" fill="#B5A098" opacity="0.5"/>
    <circle cx="22" cy="15" r="0.8" fill="#B5A098" opacity="0.5"/>
  </g>

  <!-- Gentle therapeutic atmosphere -->
  <g stroke="#D4C4B0" stroke-width="1" fill="none" opacity="0.4">
    <circle cx="20" cy="20" r="16" stroke-dasharray="2,3"/>
  </g>
</svg>